<svg height="512" viewBox="0 0 512 512" width="512" xmlns="http://www.w3.org/2000/svg"><g id="Layer_2" data-name="Layer 2"><circle cx="256.351" cy="255.998" fill="#6599fe" r="177.437"/><path d="m433.793 256a177.448 177.448 0 0 1 -314.271 112.98 177.443 177.443 0 0 0 249.778-249.838 177.091 177.091 0 0 1 64.493 136.858z" fill="#3454ff"/><circle cx="256.351" cy="255.998" fill="#ff9f41" r="149.531" transform="matrix(.16 -.987 .987 .16 -37.404 468.033)"/><path d="m256.35 385.814a129.816 129.816 0 1 1 129.817-129.814 129.961 129.961 0 0 1 -129.817 129.814z" fill="#fff4f6"/><rect fill="#4f1968" height="91.573" rx="5.732" width="12.558" x="250.072" y="170.704"/><rect fill="#4f1968" height="73.822" rx="5.732" transform="matrix(-.707 -.707 .707 -.707 309.44 596.398)" width="12.558" x="271.959" y="197.201"/><path d="m389.376 261.568h-25.34a5.581 5.581 0 0 1 0-11.162h25.34a5.581 5.581 0 1 1 0 11.162z" fill="#b250b5"/><path d="m148.68 261.568h-26.009a5.581 5.581 0 0 1 0-11.162h26.009a5.581 5.581 0 1 1 0 11.162z" fill="#b250b5"/><path d="m256.009 394.933a5.579 5.579 0 0 1 -5.581-5.58v-25.674a5.581 5.581 0 0 1 11.162 0v25.674a5.579 5.579 0 0 1 -5.581 5.58z" fill="#b250b5"/><path d="m256.009 153.9a5.58 5.58 0 0 1 -5.581-5.581v-25.67a5.581 5.581 0 1 1 11.162 0v25.674a5.58 5.58 0 0 1 -5.581 5.577z" fill="#b250b5"/><path d="m161.712 355.864a5.581 5.581 0 0 1 -3.947-9.528l18.363-18.362a5.582 5.582 0 0 1 7.894 7.894l-18.363 18.362a5.564 5.564 0 0 1 -3.947 1.634z" fill="#b250b5"/><path d="m332.278 185.3a5.581 5.581 0 0 1 -3.947-9.528l18.028-18.028a5.582 5.582 0 0 1 7.894 7.894l-18.028 18.028a5.564 5.564 0 0 1 -3.947 1.634z" fill="#b250b5"/><path d="m180.075 185.634a5.564 5.564 0 0 1 -3.947-1.634l-18.363-18.363a5.582 5.582 0 0 1 7.894-7.894l18.363 18.363a5.581 5.581 0 0 1 -3.947 9.528z" fill="#b250b5"/><path d="m350.306 355.864a5.564 5.564 0 0 1 -3.947-1.634l-18.028-18.03a5.582 5.582 0 1 1 7.894-7.894l18.028 18.027a5.581 5.581 0 0 1 -3.947 9.528z" fill="#b250b5"/><g fill="#ff9f41"><path d="m26.611 161.69h22.724a0 0 0 0 1 0 0v234.224a11.362 11.362 0 0 1 -11.362 11.362 11.362 11.362 0 0 1 -11.362-11.362v-234.224a0 0 0 0 1 0 0z"/><path d="m37.973 93.338a37.973 37.973 0 0 1 37.973 37.973v35.25a23.137 23.137 0 0 1 -23.137 23.139h-29.672a23.137 23.137 0 0 1 -23.137-23.139v-35.25a37.973 37.973 0 0 1 37.973-37.973z"/><path d="m473.619 100.475h22.724a0 0 0 0 1 0 0v234.225a11.362 11.362 0 0 1 -11.362 11.362 11.362 11.362 0 0 1 -11.362-11.362v-234.225a0 0 0 0 1 0 0z" transform="matrix(-1 0 0 -1 969.962 446.537)"/><path d="m484.981 329.129a27.019 27.019 0 0 1 27.019 27.019v12.052a16.463 16.463 0 0 1 -16.463 16.463h-21.112a16.463 16.463 0 0 1 -16.463-16.463v-12.052a27.019 27.019 0 0 1 27.019-27.019z"/><path d="m457.962 368.2h7.273a0 0 0 0 1 0 0v56.358a3.637 3.637 0 0 1 -3.635 3.642 3.637 3.637 0 0 1 -3.637-3.637v-56.363a0 0 0 0 1 -.001 0z"/><path d="m473.55 368.2h7.273a0 0 0 0 1 0 0v56.358a3.637 3.637 0 0 1 -3.637 3.637 3.637 3.637 0 0 1 -3.637-3.637v-56.358a0 0 0 0 1 .001 0z"/><path d="m489.138 368.2h7.273a0 0 0 0 1 0 0v56.358a3.637 3.637 0 0 1 -3.637 3.637 3.637 3.637 0 0 1 -3.637-3.637v-56.358a0 0 0 0 1 .001 0z"/><path d="m504.727 368.2h7.273a0 0 0 0 1 0 0v56.358a3.637 3.637 0 0 1 -3.637 3.637 3.637 3.637 0 0 1 -3.637-3.637v-56.358a0 0 0 0 1 .001 0z"/></g><circle cx="256.352" cy="255.998" fill="#b250b5" r="10.582" transform="matrix(.16 -.987 .987 .16 -37.404 468.033)"/></g></svg>