<svg height="512pt" viewBox="0 -51 512 512" width="512pt" xmlns="http://www.w3.org/2000/svg"><path d="m256 330c-68.925781 0-125-56.074219-125-125s56.074219-125 125-125 125 56.074219 125 125-56.074219 125-125 125zm0 0" fill="#ffe132"/><g fill="#fac80f"><path d="m256 50c-8.285156 0-15-6.714844-15-15v-20c0-8.285156 6.714844-15 15-15s15 6.714844 15 15v20c0 8.285156-6.714844 15-15 15zm0 0"/><path d="m171.015625 72.777344c-5.1875 0-10.226563-2.6875-13.003906-7.503906l-10-17.320313c-4.144531-7.171875-1.6875-16.347656 5.488281-20.488281 7.175781-4.144532 16.347656-1.683594 20.488281 5.488281l10 17.320313c4.144531 7.175781 1.6875 16.351562-5.488281 20.492187-2.363281 1.363281-4.941406 2.011719-7.484375 2.011719zm0 0"/><path d="m108.761719 135.003906c-2.542969 0-5.125-.648437-7.484375-2.015625l-17.324219-10c-7.171875-4.140625-9.628906-13.3125-5.488281-20.488281s13.316406-9.632812 20.488281-5.488281l17.324219 10c7.171875 4.140625 9.628906 13.3125 5.488281 20.488281-2.777344 4.8125-7.820313 7.503906-13.003906 7.503906zm0 0"/><path d="m86 220h-20c-8.285156 0-15-6.714844-15-15s6.714844-15 15-15h20c8.285156 0 15 6.714844 15 15s-6.714844 15-15 15zm0 0"/></g><path d="m446 220h-20c-8.285156 0-15-6.714844-15-15s6.714844-15 15-15h20c8.285156 0 15 6.714844 15 15s-6.714844 15-15 15zm0 0" fill="#ebaf00"/><path d="m403.238281 135.003906c-5.183593 0-10.226562-2.691406-13.003906-7.503906-4.144531-7.175781-1.683594-16.347656 5.488281-20.488281l17.320313-10c7.175781-4.144531 16.347656-1.6875 20.492187 5.488281 4.140625 7.175781 1.683594 16.347656-5.492187 20.488281l-17.320313 10c-2.359375 1.367188-4.941406 2.015625-7.484375 2.015625zm0 0" fill="#ebaf00"/><path d="m340.984375 72.777344c-2.542969 0-5.121094-.648438-7.484375-2.011719-7.175781-4.144531-9.632812-13.316406-5.488281-20.492187l10-17.320313c4.140625-7.171875 13.3125-9.632813 20.488281-5.488281 7.175781 4.140625 9.632812 13.316406 5.488281 20.488281l-10 17.320313c-2.777343 4.816406-7.816406 7.503906-13.003906 7.503906zm0 0" fill="#ebaf00"/><path d="m256 80v250c68.925781 0 125-56.074219 125-125s-56.074219-125-125-125zm0 0" fill="#fac80f"/><path d="m271 35v-20c0-8.285156-6.714844-15-15-15v50c8.285156 0 15-6.714844 15-15zm0 0" fill="#ebaf00"/><path d="m415 410h-400c-8.285156 0-15-6.714844-15-15 0-47.386719 22.804688-91.726562 64.207031-124.851562 40.425781-32.335938 93.976563-50.148438 150.792969-50.148438s110.367188 17.8125 150.792969 50.148438c41.402343 33.125 64.207031 77.464843 64.207031 124.851562 0 8.285156-6.714844 15-15 15zm0 0" fill="#68d31e"/><path d="m365.792969 270.148438c-30.527344-24.417969-68.542969-40.546876-109.792969-46.988282v186.839844h159c8.285156 0 15-6.714844 15-15 0-47.386719-22.804688-91.726562-64.207031-124.851562zm0 0" fill="#63b419"/><path d="m497 410h-240c-8.285156 0-15-6.714844-15-15 0-31.242188 14.398438-60.445312 40.542969-82.234375 25.355469-21.128906 58.902343-32.765625 94.457031-32.765625s69.101562 11.636719 94.457031 32.765625c26.144531 21.789063 40.542969 50.992187 40.542969 82.234375 0 8.285156-6.714844 15-15 15zm0 0" fill="#86e14b"/><path d="m471.457031 312.765625c-25.355469-21.128906-58.902343-32.765625-94.457031-32.765625s-69.101562 11.636719-94.457031 32.765625c-10.992188 9.164063-19.898438 19.636719-26.542969 31.023437v66.160157c.332031.023437.660156.050781 1 .050781h240c8.285156 0 15-6.714844 15-15 0-31.242188-14.398438-60.445312-40.542969-82.234375zm0 0" fill="#68d31e"/></svg>