<svg width="25" height="35" viewBox="0 0 25 35" fill="none" xmlns="http://www.w3.org/2000/svg">
<path d="M5.24999 4.75H4.74999V5.25V8.74999V9.24999H5.24999H8.74999H9.24999V8.74999V5.25V4.75H8.74999H5.24999ZM5.24999 17H4.74999V17.5V22.75V23.25H5.24999H8.74999H9.24999V22.75V17.5V17H8.74999H5.24999ZM3.5 0.5H21C21.7956 0.5 22.5587 0.81607 23.1213 1.37868C23.6839 1.94129 24 2.70435 24 3.5V11.75H0.5V3.5C0.5 2.70435 0.81607 1.94129 1.37868 1.37868C1.94129 0.81607 2.70435 0.5 3.5 0.5ZM24 29.75C24 30.5456 23.6839 31.3087 23.1213 31.8713C22.5587 32.4339 21.7956 32.75 21 32.75H17.5H6.99999H5.24999H3.5C2.70435 32.75 1.94129 32.4339 1.37868 31.8713C0.81607 31.3087 0.5 30.5456 0.5 29.75V14.5H24V29.75Z" fill="#CAD1E1" stroke="black"/>
<rect x="5.6875" y="33.6875" width="2.625" height="0.874999" fill="white" stroke="black" stroke-width="0.874999"/>
<rect x="16.1875" y="33.6875" width="2.625" height="0.874999" fill="white" stroke="black" stroke-width="0.874999"/>
</svg>
