<svg width="28" height="28" viewBox="0 0 28 28" fill="none" xmlns="http://www.w3.org/2000/svg">
<path d="M17.304 17.122C16.3681 17.8765 15.2022 18.288 14 18.288C12.7978 18.288 11.6319 17.8765 10.696 17.122C10.4101 16.8844 10.0415 16.77 9.67131 16.8042C9.30111 16.8383 8.95964 17.0181 8.722 17.304C8.48437 17.5899 8.37004 17.9585 8.40418 18.3287C8.43831 18.6989 8.6181 19.0404 8.904 19.278C10.3339 20.4716 12.1374 21.1255 14 21.1255C15.8626 21.1255 17.6661 20.4716 19.096 19.278C19.3819 19.0404 19.5617 18.6989 19.5958 18.3287C19.63 17.9585 19.5156 17.5899 19.278 17.304C19.1603 17.1624 19.0159 17.0454 18.8531 16.9597C18.6902 16.8739 18.512 16.8211 18.3287 16.8042C17.9585 16.77 17.5899 16.8844 17.304 17.122ZM9.8 12.6C10.0769 12.6 10.3476 12.5179 10.5778 12.3641C10.808 12.2102 10.9875 11.9916 11.0934 11.7358C11.1994 11.4799 11.2271 11.1984 11.1731 10.9269C11.1191 10.6553 10.9857 10.4058 10.79 10.21C10.5942 10.0143 10.3447 9.88092 10.0731 9.8269C9.80156 9.77288 9.52006 9.8006 9.26425 9.90657C9.00843 10.0125 8.78978 10.192 8.63595 10.4222C8.48211 10.6524 8.4 10.9231 8.4 11.2C8.4 11.5713 8.5475 11.9274 8.81005 12.1899C9.07261 12.4525 9.4287 12.6 9.8 12.6ZM18.2 9.8C17.9231 9.8 17.6524 9.88211 17.4222 10.0359C17.192 10.1898 17.0125 10.4084 16.9066 10.6642C16.8006 10.9201 16.7729 11.2016 16.8269 11.4731C16.8809 11.7447 17.0143 11.9942 17.2101 12.1899C17.4058 12.3857 17.6553 12.5191 17.9269 12.5731C18.1984 12.6271 18.4799 12.5994 18.7358 12.4934C18.9916 12.3875 19.2102 12.208 19.3641 11.9778C19.5179 11.7476 19.6 11.4769 19.6 11.2C19.6 10.8287 19.4525 10.4726 19.19 10.21C18.9274 9.9475 18.5713 9.8 18.2 9.8ZM14 0C11.2311 0 8.52431 0.821085 6.22202 2.35942C3.91973 3.89776 2.12532 6.08426 1.06569 8.64243C0.00606596 11.2006 -0.271181 14.0155 0.269012 16.7313C0.809205 19.447 2.14258 21.9416 4.10051 23.8995C6.05845 25.8574 8.55301 27.1908 11.2687 27.731C13.9845 28.2712 16.7994 27.9939 19.3576 26.9343C21.9157 25.8747 24.1022 24.0803 25.6406 21.778C27.1789 19.4757 28 16.7689 28 14C28 12.1615 27.6379 10.341 26.9343 8.64243C26.2307 6.94387 25.1995 5.40052 23.8995 4.1005C22.5995 2.80048 21.0561 1.76925 19.3576 1.06569C17.659 0.362121 15.8385 0 14 0ZM14 25.2C11.7849 25.2 9.61945 24.5431 7.77762 23.3125C5.93579 22.0818 4.50026 20.3326 3.65256 18.286C2.80485 16.2395 2.58306 13.9876 3.01521 11.815C3.44737 9.6424 4.51406 7.64675 6.08041 6.0804C7.64676 4.51405 9.64241 3.44736 11.815 3.0152C13.9876 2.58305 16.2395 2.80485 18.2861 3.65255C20.3326 4.50025 22.0818 5.93578 23.3125 7.77761C24.5431 9.61944 25.2 11.7848 25.2 14C25.2 16.9704 24.02 19.8192 21.9196 21.9196C19.8192 24.02 16.9704 25.2 14 25.2Z" fill="black"/>
</svg>
